<?xml version="1.0" encoding="UTF-8"?>
<svg width="24px" height="24px" viewBox="0 0 24 24" version="1.1" xmlns="http://www.w3.org/2000/svg" xmlns:xlink="http://www.w3.org/1999/xlink">
    <!-- Generator: Sketch 49.3 (51167) - http://www.bohemiancoding.com/sketch -->
    <title>icon-search</title>
    <desc>Created with Sketch.</desc>
    <defs></defs>
    <g id="Hi-Fi" stroke="none" stroke-width="1" fill="none" fill-rule="evenodd">
        <g id="Browse-Page" transform="translate(-1286.000000, -318.000000)" fill="#0770C8">
            <g id="Section" transform="translate(120.000000, 280.000000)">
                <path d="M1182.07961,47.8321479 C1182.07961,51.2817794 1179.27405,54.0889694 1175.82643,54.0889694 C1172.3788,54.0889694 1169.57325,51.2817794 1169.57325,47.8321479 C1169.57325,44.3825165 1172.3788,41.5753265 1175.82643,41.5753265 C1179.27405,41.5753265 1182.07961,44.3825165 1182.07961,47.8321479 L1182.07961,47.8321479 Z M1190,59.4860985 L1183.92207,53.4046295 C1185.05267,51.7705936 1185.65286,49.8153369 1185.65286,47.8321479 C1185.65286,42.3993276 1181.25609,38 1175.82643,38 C1170.39677,38 1166,42.3993276 1166,47.8321479 C1166,53.2649683 1170.39677,57.6642959 1175.82643,57.6642959 C1177.80847,57.6642959 1179.76258,57.0637527 1181.39567,55.9324971 L1187.4736,62 L1190,59.4860985 Z" id="icon-search"></path>
            </g>
        </g>
    </g>
</svg>